<svg aria-hidden="true" style="position: absolute; width: 0; height: 0; overflow: hidden;" version="1.1"
     xmlns="http://www.w3.org/2000/svg" xmlns:xlink="http://www.w3.org/1999/xlink">
    <defs>
        <symbol id="icon-link" viewBox="0 0 32 32">
            <path d="M11.581 26.669c-2.528 0-4.807-1.523-5.774-3.858s-0.433-5.023 1.354-6.811l2.652-2.653 1.768 1.768-2.651 2.651c-0.947 0.947-1.317 2.328-0.971 3.623s1.358 2.305 2.652 2.652c1.294 0.347 2.675-0.023 3.623-0.971l2.651-2.651 1.767 1.769-2.651 2.651c-1.17 1.176-2.761 1.835-4.42 1.83zM12.465 21.302l-1.768-1.767 8.839-8.839 1.767 1.768-8.839 8.839zM22.189 18.651l-1.769-1.767 2.651-2.651c0.96-0.945 1.34-2.332 0.995-3.634s-1.362-2.319-2.664-2.664c-1.302-0.345-2.689 0.034-3.634 0.994l-2.652 2.651-1.768-1.768 2.653-2.652c2.444-2.423 6.386-2.414 8.819 0.019s2.442 6.376 0.019 8.819l-2.651 2.652z"></path>
        </symbol>
        <symbol id="icon-khai_white" viewBox="0 0 61 32">
            <path d="M0 0l9.512 15.803-9.512 16.197h11.638l3.497-6.101 3.479 6.101h11.638l10.284-7.369 4.456 7.369h15.512v-24.235l-10.078 7.079v6.976l-2.948-4.902-14.363 10.095 2.125-3.496 11.346-8.090-0.343-0.582-10.421 7.319 2.143-3.497 7.405-5.281-0.343-0.566-6.719 4.731 2.125-3.479 3.736-2.674-6.839-11.396-12.889 21.819-3.497-6.016 9.307-15.803h-11.535l-3.685 5.621-3.497-5.621zM50.425 0v6.924l9.667-6.924zM60.503 1.954l-10.078 7.079v0.72l10.078-7.199zM60.503 4.816l-10.078 7.095v0.771l10.078-7.181z"></path>
        </symbol>
        <symbol id="icon-point" viewBox="0 0 32 32">
            <path fill="#e5e5e5" style="fill: var(--color1, #e5e5e5)" d="M0 0h32v32h-32v-32z"></path>
            <path fill="#fff" style="fill: var(--color2, #fff)" d="M-624-112h1900.8v2694.4h-1900.8v-2694.4z"></path>
            <path fill="#fff" style="fill: var(--color2, #fff)" d="M16-9.6c14.139 0 25.6 11.461 25.6 25.6s-11.462 25.6-25.6 25.6c-14.139 0-25.6-11.462-25.6-25.6s11.461-25.6 25.6-25.6z"></path>
            <path fill="#fff" style="fill: var(--color2, #fff)" d="M-9.6-9.6h51.2v51.2h-51.2v-51.2z"></path>
            <path fill="#5531a7" style="fill: var(--color3, #5531a7)" d="M16 22.667c-3.682 0-6.667-2.985-6.667-6.667s2.985-6.667 6.667-6.667c3.682 0 6.667 2.985 6.667 6.667s-2.985 6.667-6.667 6.667z"></path>
        </symbol>
        <symbol id="icon-Flag-icon" viewBox="0 0 43 32">
            <path fill="#22438b" style="fill: var(--color1, #22438b)"
                  d="M41.482-2.667h-40.296c-2.618 0-4.741 2.229-4.741 4.978v27.378c0 2.749 2.123 4.978 4.741 4.978h40.296c2.618 0 4.741-2.229 4.741-4.978v-27.378c0-2.749-2.123-4.978-4.741-4.978z"></path>
            <path fill="#fff" style="fill: var(--color2, #fff)"
                  d="M3.556-0.178l-4.802 0.065 0.062 4.913 40.254 27.447 4.829-0.092-0.090-4.883-40.251-27.45z"></path>
            <path fill="#c7152a" style="fill: var(--color3, #c7152a)"
                  d="M1.185-0.178l-2.37 2.489 42.667 29.867 2.37-2.489-42.667-29.867z"></path>
            <path fill="#fff" style="fill: var(--color2, #fff)"
                  d="M39.111-0.178h4.741v4.978c0 0-27.852 18.408-40.254 27.447-0.149 0.11-4.736 0.007-4.736 0.007l-0.367-4.731 40.616-27.701z"></path>
            <path fill="#c7152a" style="fill: var(--color3, #c7152a)"
                  d="M41.583-0.247l2.269 2.559-42.667 29.867-2.37-2.489 42.769-29.936z"></path>
            <path fill="#fff" style="fill: var(--color2, #fff)"
                  d="M15.408-0.178h11.852v9.956h16.593v12.444h-16.593v9.956h-11.852v-9.956h-16.593v-12.444h16.593v-9.956z"></path>
            <path fill="#c7152a" style="fill: var(--color3, #c7152a)"
                  d="M17.778-0.178h7.111v12.444h18.963v7.467h-18.963v12.444h-7.111v-12.444h-18.963v-7.467h18.963v-12.444z"></path>
            <path fill="none" stroke="#000" style="stroke: var(--color4, #000)" stroke-linejoin="miter"
                  stroke-linecap="butt" stroke-miterlimit="4" stroke-width="2.6667"
                  d="M41.482-1.422h-40.296c-1.964 0-3.556 1.671-3.556 3.733v27.378c0 2.062 1.592 3.733 3.556 3.733h40.296c1.964 0 3.555-1.671 3.555-3.733v-27.378c0-2.062-1.592-3.733-3.555-3.733z"></path>
        </symbol>
        <symbol id="icon-location" viewBox="0 0 32 32">
            <path d="M16 28c-1.684-1.436-3.245-3.011-4.667-4.708-2.133-2.548-4.667-6.343-4.667-9.959-0.002-3.777 2.272-7.182 5.761-8.627s7.505-0.646 10.175 2.026c1.755 1.748 2.739 4.124 2.731 6.601 0 3.616-2.533 7.411-4.667 9.959-1.422 1.697-2.983 3.272-4.667 4.708zM16 9.333c-1.429 0-2.75 0.762-3.464 2s-0.715 2.762 0 4c0.715 1.238 2.035 2 3.464 2 2.209 0 4-1.791 4-4s-1.791-4-4-4z"></path>
        </symbol>
        <symbol id="icon-mail" viewBox="0 0 32 32">
            <path d="M26.667 26.667h-21.333c-1.473 0-2.667-1.194-2.667-2.667v-16.116c0.062-1.427 1.238-2.552 2.667-2.551h21.333c1.473 0 2.667 1.194 2.667 2.667v16c0 1.473-1.194 2.667-2.667 2.667zM5.333 10.491v13.509h21.333v-13.509l-10.667 7.109-10.667-7.109zM6.4 8l9.6 6.4 9.6-6.4h-19.2z"></path>
        </symbol>
        <symbol id="icon-phone" viewBox="0 0 32 32">
            <path d="M25.33 26.667c-11.376 0.016-20.009-8.721-19.997-19.997 0-0.736 0.597-1.337 1.333-1.337h3.519c0.661 0 1.222 0.486 1.319 1.139 0.233 1.567 0.689 3.092 1.354 4.529l0.137 0.296c0.191 0.411 0.061 0.9-0.307 1.163-1.090 0.778-1.506 2.345-0.657 3.567 1.065 1.534 2.408 2.877 3.942 3.942 1.222 0.849 2.789 0.432 3.567-0.657 0.264-0.369 0.752-0.498 1.164-0.308l0.294 0.136c1.437 0.666 2.962 1.122 4.529 1.354 0.654 0.097 1.139 0.658 1.139 1.319v3.52c0 0.736-0.598 1.333-1.335 1.333h-0.002z"></path>
        </symbol>
        <symbol id="icon-github" viewBox="0 0 32 32">
            <path d="M16 0c-8.835 0-16 7.164-16 16 0 7.069 4.584 13.067 10.943 15.183 0.799 0.148 1.057-0.348 1.057-0.769v-2.979c-4.451 0.968-5.377-1.888-5.377-1.888-0.728-1.849-1.777-2.341-1.777-2.341-1.452-0.993 0.111-0.972 0.111-0.972 1.607 0.112 2.452 1.649 2.452 1.649 1.427 2.445 3.743 1.739 4.656 1.329 0.143-1.033 0.557-1.74 1.016-2.139-3.553-0.407-7.289-1.779-7.289-7.908 0-1.748 0.625-3.175 1.648-4.295-0.165-0.404-0.713-2.032 0.156-4.235 0 0 1.344-0.429 4.401 1.64 1.276-0.355 2.644-0.532 4.004-0.539 1.36 0.007 2.729 0.184 4.008 0.539 3.055-2.069 4.396-1.64 4.396-1.64 0.871 2.204 0.323 3.832 0.157 4.235 1.027 1.12 1.647 2.548 1.647 4.295 0 6.145-3.743 7.499-7.305 7.895 0.573 0.496 1.097 1.469 1.097 2.963v4.391c0 0.425 0.256 0.925 1.068 0.768 6.353-2.119 10.932-8.115 10.932-15.181 0-8.836-7.164-16-16-16z"></path>
        </symbol>
        <symbol id="icon-telegram" viewBox="0 0 32 32">
            <path d="M24.512 30.372c-2.701-1.924-7.464-5.416-7.464-5.416s-2.507 2.367-4.128 3.897c-0.287 0.271-0.697 0.376-1.081 0.276-0.385-0.101-0.677-0.395-0.804-0.768-1.009-2.973-2.945-8.82-2.945-8.82s-4.143-1.313-7.299-2.257c-0.457-0.137-0.775-0.547-0.791-1.019-0.015-0.471 0.276-0.9 0.723-1.065 7.037-2.604 24.255-9.064 29.845-11.133 0.363-0.135 0.769-0.063 1.063 0.187s0.427 0.637 0.347 1.011c-1.055 4.953-3.865 18.736-5.024 24.181-0.109 0.511-0.472 0.932-0.965 1.12-0.493 0.187-1.047 0.111-1.476-0.193zM9.832 18.803l2.239 7.384 0.497-4.676c0 0 8.649-7.801 13.58-12.248 0.144-0.131 0.164-0.349 0.044-0.503-0.119-0.153-0.337-0.189-0.501-0.085-5.715 3.649-15.859 10.128-15.859 10.128z"></path>
        </symbol>
        <symbol id="icon-arrow11" viewBox="0 0 32 32">
            <path d="M12.586 27.414l-10-10c-0.781-0.781-0.781-2.047 0-2.828l10-10c0.781-0.781 2.047-0.781 2.828 0s0.781 2.047 0 2.828l-6.586 6.586h19.172c1.105 0 2 0.895 2 2s-0.895 2-2 2h-19.172l6.586 6.586c0.39 0.39 0.586 0.902 0.586 1.414s-0.195 1.024-0.586 1.414c-0.781 0.781-2.047 0.781-2.828 0z"></path>
        </symbol>
        <symbol id="icon-ua-flag" viewBox="0 0 48 32">
            <path fill="#005bbb" style="fill:var(--color1, #005bbb)" d="M0 0h48v32H0V0z"/>
            <path fill="#ffd500" style="fill:var(--color2, #ffd500)" d="M0 16h48v16H0V16z"/>
        </symbol>
    </defs>
</svg>
